<?xml version="1.0" encoding="UTF-8" standalone="no"?>
<!DOCTYPE svg PUBLIC "-//W3C//DTD SVG 1.1//EN"
 "http://www.w3.org/imgs/SVG/1.1/DTD/svg11.dtd">
<!-- Generated by graphviz version 2.38.0 (20140413.2041)
 -->
<!-- Title: decide_project Pages: 1 -->
<svg width="616pt" height="288pt"
 viewBox="0.00 0.00 615.62 288.00" xmlns="http://www.w3.org/2000/svg" xmlns:xlink="http://www.w3.org/1999/xlink">
<g id="graph0" class="graph" transform="scale(0.434152 0.434152) rotate(0) translate(4 659.362)">
<title>decide_project</title>
<g id="a_graph0"><a xlink:title="How do I decide which packages I need?">
<polygon fill="white" stroke="none" points="-4,4 -4,-659.362 1413.98,-659.362 1413.98,4 -4,4"/>
<text text-anchor="middle" x="704.988" y="-49.6" font-family="Helvetica,sans-Serif" font-size="18.00">Note:</text>
<text text-anchor="middle" x="704.988" y="-29.6" font-family="Helvetica,sans-Serif" font-size="18.00">Green ringed shapes are links on this site and open in this window</text>
<text text-anchor="middle" x="704.988" y="-9.6" font-family="Helvetica,sans-Serif" font-size="18.00">Blue ones are links to external sites and open in a new tab/window.</text>
</a>
</g>
<!-- what -->
<g id="node1" class="node"><title>what</title>
<g id="a_node1"><a xlink:title="You have several possibilities!">
<polygon fill="#70ff4c" stroke="#70ff4c" points="660.041,-655.362 457.152,-655.362 404.959,-559.362 607.848,-559.362 660.041,-655.362"/>
<text text-anchor="middle" x="532.5" y="-612.962" font-family="Helvetica,sans-Serif" font-size="18.00">What are you</text>
<text text-anchor="middle" x="532.5" y="-592.962" font-family="Helvetica,sans-Serif" font-size="18.00">trying to do?</text>
</a>
</g>
</g>
<!-- try -->
<g id="node2" class="node"><title>try</title>
<g id="a_node2"><a xlink:title="Try the Jupyter notebook!">
<polygon fill="none" stroke="black" points="151,-497.362 0,-497.362 0,-461.362 151,-461.362 151,-497.362"/>
<text text-anchor="middle" x="75.5" y="-474.962" font-family="Helvetica,sans-Serif" font-size="18.00">Try the notebook</text>
</a>
</g>
</g>
<!-- what&#45;&gt;try -->
<g id="edge1" class="edge"><title>what&#45;&gt;try</title>
<path fill="none" stroke="black" d="M421.062,-589.215C345.812,-575.792 244.999,-554.189 159.5,-523.362 143.823,-517.71 127.343,-509.761 113.172,-502.232"/>
<polygon fill="black" stroke="black" points="114.683,-499.07 104.225,-497.374 111.343,-505.222 114.683,-499.07"/>
</g>
<!-- install -->
<g id="node3" class="node"><title>install</title>
<g id="a_node3"><a xlink:title="Go To Install Jupyter!">
<polygon fill="none" stroke="black" points="340,-497.362 169,-497.362 169,-461.362 340,-461.362 340,-497.362"/>
<text text-anchor="middle" x="254.5" y="-474.962" font-family="Helvetica,sans-Serif" font-size="18.00">Install the notebook</text>
</a>
</g>
</g>
<!-- what&#45;&gt;install -->
<g id="edge2" class="edge"><title>what&#45;&gt;install</title>
<path fill="none" stroke="black" d="M427.853,-559.273C401.91,-547.567 374.185,-535.03 348.5,-523.362 333.075,-516.355 316.243,-508.669 301.14,-501.756"/>
<polygon fill="black" stroke="black" points="302.537,-498.547 291.987,-497.566 299.622,-504.911 302.537,-498.547"/>
</g>
<!-- team -->
<g id="node4" class="node"><title>team</title>
<g id="a_node4"><a xlink:title="Install for teams, etc!">
<polygon fill="none" stroke="black" points="531,-513.362 358,-513.362 358,-445.362 531,-445.362 531,-513.362"/>
<text text-anchor="middle" x="444.5" y="-494.962" font-family="Helvetica,sans-Serif" font-size="18.00">Install notebooks</text>
<text text-anchor="middle" x="444.5" y="-474.962" font-family="Helvetica,sans-Serif" font-size="18.00"> for my team, class,</text>
<text text-anchor="middle" x="444.5" y="-454.962" font-family="Helvetica,sans-Serif" font-size="18.00"> or group</text>
</a>
</g>
</g>
<!-- what&#45;&gt;team -->
<g id="edge3" class="edge"><title>what&#45;&gt;team</title>
<path fill="none" stroke="black" d="M499.482,-559.086C490.926,-546.837 481.779,-533.74 473.45,-521.814"/>
<polygon fill="black" stroke="black" points="476.145,-519.56 467.55,-513.366 470.406,-523.568 476.145,-519.56"/>
</g>
<!-- convert -->
<g id="node5" class="node"><title>convert</title>
<g id="a_node5"><a xlink:title="Convert to other formats.">
<polygon fill="none" stroke="black" points="692,-513.362 549,-513.362 549,-445.362 692,-445.362 692,-513.362"/>
<text text-anchor="middle" x="620.5" y="-494.962" font-family="Helvetica,sans-Serif" font-size="18.00">Convert my</text>
<text text-anchor="middle" x="620.5" y="-474.962" font-family="Helvetica,sans-Serif" font-size="18.00"> notebook file to</text>
<text text-anchor="middle" x="620.5" y="-454.962" font-family="Helvetica,sans-Serif" font-size="18.00"> another format</text>
</a>
</g>
</g>
<!-- what&#45;&gt;convert -->
<g id="edge4" class="edge"><title>what&#45;&gt;convert</title>
<path fill="none" stroke="black" d="M565.518,-559.086C574.074,-546.837 583.221,-533.74 591.55,-521.814"/>
<polygon fill="black" stroke="black" points="594.594,-523.568 597.45,-513.366 588.855,-519.56 594.594,-523.568"/>
</g>
<!-- lang -->
<g id="node6" class="node"><title>lang</title>
<g id="a_node6"><a xlink:title="Use other programming languages.">
<polygon fill="none" stroke="black" points="871,-523.362 710,-523.362 710,-435.362 871,-435.362 871,-523.362"/>
<text text-anchor="middle" x="790.5" y="-504.962" font-family="Helvetica,sans-Serif" font-size="18.00">Use another</text>
<text text-anchor="middle" x="790.5" y="-484.962" font-family="Helvetica,sans-Serif" font-size="18.00"> programming</text>
<text text-anchor="middle" x="790.5" y="-464.962" font-family="Helvetica,sans-Serif" font-size="18.00"> language such as</text>
<text text-anchor="middle" x="790.5" y="-444.962" font-family="Helvetica,sans-Serif" font-size="18.00"> R or Java</text>
</a>
</g>
</g>
<!-- what&#45;&gt;lang -->
<g id="edge5" class="edge"><title>what&#45;&gt;lang</title>
<path fill="none" stroke="black" d="M612.366,-567.358C640.276,-553.728 671.793,-538.336 700.474,-524.329"/>
<polygon fill="black" stroke="black" points="702.228,-527.367 709.678,-519.834 699.156,-521.077 702.228,-527.367"/>
</g>
<!-- custom -->
<g id="node7" class="node"><title>custom</title>
<g id="a_node7"><a xlink:title="Customize Notebooks.">
<polygon fill="none" stroke="black" points="1141.5,-513.362 991.5,-513.362 991.5,-445.362 1141.5,-445.362 1141.5,-513.362"/>
<text text-anchor="middle" x="1066.5" y="-494.962" font-family="Helvetica,sans-Serif" font-size="18.00">Customize the</text>
<text text-anchor="middle" x="1066.5" y="-474.962" font-family="Helvetica,sans-Serif" font-size="18.00"> notebook for my</text>
<text text-anchor="middle" x="1066.5" y="-454.962" font-family="Helvetica,sans-Serif" font-size="18.00"> needs</text>
</a>
</g>
</g>
<!-- what&#45;&gt;custom -->
<g id="edge6" class="edge"><title>what&#45;&gt;custom</title>
<path fill="none" stroke="black" d="M622.181,-585.202C722.273,-561.585 883.043,-523.65 981.286,-500.469"/>
<polygon fill="black" stroke="black" points="982.253,-503.837 991.182,-498.134 980.645,-497.024 982.253,-503.837"/>
</g>
<!-- noinst -->
<g id="node13" class="node"><title>noinst</title>
<g id="a_node13"><a xlink:title="Don&#39;t wish to install yet?">
<text text-anchor="middle" x="83.5" y="-356.879" font-family="Helvetica,sans-Serif" font-size="18.00">No installation</text>
<text text-anchor="middle" x="83.5" y="-336.879" font-family="Helvetica,sans-Serif" font-size="18.00">needed!</text>
</a>
</g>
</g>
<!-- try&#45;&gt;noinst -->
<g id="edge7" class="edge"><title>try&#45;&gt;noinst</title>
<path fill="none" stroke="black" d="M76.5789,-461.358C77.8049,-442.036 79.8359,-410.026 81.3816,-385.667"/>
<polygon fill="black" stroke="black" points="84.8913,-385.622 82.0317,-375.421 77.9054,-385.179 84.8913,-385.622"/>
</g>
<!-- my -->
<g id="node15" class="node"><title>my</title>
<g id="a_node15"><a xlink:title="Local Installation">
<text text-anchor="middle" x="239.5" y="-346.879" font-family="Helvetica,sans-Serif" font-size="18.00">On my system</text>
</a>
</g>
</g>
<!-- install&#45;&gt;my -->
<g id="edge11" class="edge"><title>install&#45;&gt;my</title>
<path fill="none" stroke="black" d="M252.477,-461.358C249.983,-440.396 245.713,-404.503 242.756,-379.644"/>
<polygon fill="black" stroke="black" points="246.196,-378.933 241.539,-369.417 239.245,-379.76 246.196,-378.933"/>
</g>
<!-- hub -->
<g id="node10" class="node"><title>hub</title>
<g id="a_node10"><a xlink:href="https://github.com/jupyterhub/jupyterhub" xlink:title="Install JupyterHub" target="_blank">
<ellipse fill="none" stroke="blue" cx="444.5" cy="-351.279" rx="75.8212" ry="19.6"/>
<text text-anchor="middle" x="444.5" y="-346.879" font-family="Helvetica,sans-Serif" font-size="18.00">JupyterHub</text>
</a>
</g>
</g>
<!-- team&#45;&gt;hub -->
<g id="edge13" class="edge"><title>team&#45;&gt;hub</title>
<path fill="none" stroke="black" d="M444.5,-445.236C444.5,-425.382 444.5,-400.376 444.5,-381.301"/>
<polygon fill="black" stroke="black" points="448,-381.113 444.5,-371.113 441,-381.113 448,-381.113"/>
</g>
<!-- nbconvert -->
<g id="node11" class="node"><title>nbconvert</title>
<g id="a_node11"><a xlink:href="https://nbconvert.readthedocs.io/en/latest/" xlink:title="How to convert notebooks" target="_blank">
<ellipse fill="none" stroke="blue" cx="620.5" cy="-351.279" rx="67.3507" ry="19.6"/>
<text text-anchor="middle" x="620.5" y="-346.879" font-family="Helvetica,sans-Serif" font-size="18.00">nbconvert</text>
</a>
</g>
</g>
<!-- convert&#45;&gt;nbconvert -->
<g id="edge14" class="edge"><title>convert&#45;&gt;nbconvert</title>
<path fill="none" stroke="black" d="M620.5,-445.236C620.5,-425.382 620.5,-400.376 620.5,-381.301"/>
<polygon fill="black" stroke="black" points="624,-381.113 620.5,-371.113 617,-381.113 624,-381.113"/>
</g>
<!-- kernel -->
<g id="node12" class="node"><title>kernel</title>
<g id="a_node12"><a xlink:href="../projects/subprojects.html?highlight=jupyterhub#kernels" xlink:title="How to install kernels" target="_top">
<ellipse fill="none" stroke="green" cx="779.5" cy="-351.279" rx="62.8651" ry="48.1667"/>
<text text-anchor="middle" x="779.5" y="-366.879" font-family="Helvetica,sans-Serif" font-size="18.00">Install a</text>
<text text-anchor="middle" x="779.5" y="-346.879" font-family="Helvetica,sans-Serif" font-size="18.00">language</text>
<text text-anchor="middle" x="779.5" y="-326.879" font-family="Helvetica,sans-Serif" font-size="18.00">kernel</text>
</a>
</g>
</g>
<!-- lang&#45;&gt;kernel -->
<g id="edge15" class="edge"><title>lang&#45;&gt;kernel</title>
<path fill="none" stroke="black" d="M786.745,-435.324C786.02,-427.018 785.251,-418.195 784.494,-409.519"/>
<polygon fill="black" stroke="black" points="787.971,-409.1 783.615,-399.442 780.997,-409.709 787.971,-409.1"/>
</g>
<!-- widgets -->
<g id="node16" class="node"><title>widgets</title>
<g id="a_node16"><a xlink:href="https://ipywidgets.readthedocs.io/en/latest/" xlink:title="Install &amp; use ipywidgets" target="_blank">
<ellipse fill="none" stroke="blue" cx="917.5" cy="-351.279" rx="57.0522" ry="19.6"/>
<text text-anchor="middle" x="917.5" y="-346.879" font-family="Helvetica,sans-Serif" font-size="18.00">Widgets</text>
</a>
</g>
</g>
<!-- custom&#45;&gt;widgets -->
<g id="edge16" class="edge"><title>custom&#45;&gt;widgets</title>
<path fill="none" stroke="black" d="M1027.35,-445.236C1001.9,-423.698 969.28,-396.095 946.219,-376.581"/>
<polygon fill="black" stroke="black" points="948.382,-373.827 938.488,-370.039 943.861,-379.17 948.382,-373.827"/>
</g>
<!-- extend -->
<g id="node17" class="node"><title>extend</title>
<g id="a_node17"><a xlink:href="https://github.com/ipython-contrib/IPython-notebook-extensions" xlink:title="Install &amp; use extensions" target="_blank">
<ellipse fill="none" stroke="blue" cx="1066.5" cy="-351.279" rx="73.5782" ry="19.6"/>
<text text-anchor="middle" x="1066.5" y="-346.879" font-family="Helvetica,sans-Serif" font-size="18.00">Extensions</text>
</a>
</g>
</g>
<!-- custom&#45;&gt;extend -->
<g id="edge17" class="edge"><title>custom&#45;&gt;extend</title>
<path fill="none" stroke="black" d="M1066.5,-445.236C1066.5,-425.382 1066.5,-400.376 1066.5,-381.301"/>
<polygon fill="black" stroke="black" points="1070,-381.113 1066.5,-371.113 1063,-381.113 1070,-381.113"/>
</g>
<!-- dash -->
<g id="node18" class="node"><title>dash</title>
<g id="a_node18"><a xlink:href="https://github.com/jupyter/dashboards" xlink:title="Install &amp; use dashboards" target="_blank">
<ellipse fill="none" stroke="blue" cx="1237.5" cy="-351.279" rx="79.3924" ry="19.6"/>
<text text-anchor="middle" x="1237.5" y="-346.879" font-family="Helvetica,sans-Serif" font-size="18.00">Dashboards</text>
</a>
</g>
</g>
<!-- custom&#45;&gt;dash -->
<g id="edge18" class="edge"><title>custom&#45;&gt;dash</title>
<path fill="none" stroke="black" d="M1111.43,-445.236C1140.72,-423.641 1178.27,-395.951 1204.75,-376.428"/>
<polygon fill="black" stroke="black" points="1206.96,-379.146 1212.93,-370.394 1202.81,-373.512 1206.96,-379.146"/>
</g>
<!-- help -->
<g id="node19" class="node"><title>help</title>
<g id="a_node19"><a xlink:href="https://github.com/jupyter/help" xlink:title="Ask on jupyter help" target="_blank">
<ellipse fill="none" stroke="blue" cx="1372.5" cy="-351.279" rx="37.4533" ry="19.6"/>
<text text-anchor="middle" x="1372.5" y="-346.879" font-family="Helvetica,sans-Serif" font-size="18.00">Help</text>
</a>
</g>
</g>
<!-- custom&#45;&gt;help -->
<g id="edge19" class="edge"><title>custom&#45;&gt;help</title>
<path fill="none" stroke="black" d="M1141.66,-465.592C1195.63,-454.078 1268.59,-433.569 1325.5,-399.362 1335,-393.651 1343.99,-385.602 1351.51,-377.772"/>
<polygon fill="black" stroke="black" points="1354.35,-379.854 1358.5,-370.109 1349.18,-375.134 1354.35,-379.854"/>
</g>
<!-- online -->
<g id="node8" class="node"><title>online</title>
<g id="a_node8"><a xlink:href="https://try.jupyter.org/" xlink:title="Try Notebooks Online &#45; without any installation!" target="_blank">
<ellipse fill="none" stroke="blue" cx="100.5" cy="-247.397" rx="70.0071" ry="19.6"/>
<text text-anchor="middle" x="100.5" y="-242.997" font-family="Helvetica,sans-Serif" font-size="18.00">Try Online</text>
</a>
</g>
</g>
<!-- like -->
<g id="node14" class="node"><title>like</title>
<g id="a_node14"><a xlink:title="You like it!">
<text text-anchor="middle" x="109.5" y="-173.198" font-family="Helvetica,sans-Serif" font-size="18.00">I like it,</text>
<text text-anchor="middle" x="109.5" y="-153.198" font-family="Helvetica,sans-Serif" font-size="18.00">and I wish to install it!</text>
</a>
</g>
</g>
<!-- online&#45;&gt;like -->
<g id="edge9" class="edge"><title>online&#45;&gt;like</title>
<path fill="none" stroke="black" d="M102.679,-227.564C103.576,-219.807 104.643,-210.583 105.664,-201.762"/>
<polygon fill="black" stroke="black" points="109.155,-202.039 106.827,-191.703 102.201,-201.235 109.155,-202.039"/>
</g>
<!-- doinstall -->
<g id="node9" class="node"><title>doinstall</title>
<g id="a_node9"><a xlink:href="../install.html" xlink:title="How to install" target="_top">
<ellipse fill="none" stroke="green" cx="171.5" cy="-87.799" rx="89.6056" ry="19.6"/>
<text text-anchor="middle" x="171.5" y="-83.399" font-family="Helvetica,sans-Serif" font-size="18.00">Install Jupyter</text>
</a>
</g>
</g>
<!-- noinst&#45;&gt;online -->
<g id="edge8" class="edge"><title>noinst&#45;&gt;online</title>
<path fill="none" stroke="black" d="M87.3576,-327.161C89.8091,-312.468 93.0038,-293.322 95.6296,-277.586"/>
<polygon fill="black" stroke="black" points="99.1468,-277.772 97.3404,-267.333 92.2422,-276.62 99.1468,-277.772"/>
</g>
<!-- like&#45;&gt;doinstall -->
<g id="edge10" class="edge"><title>like&#45;&gt;doinstall</title>
<path fill="none" stroke="black" d="M128.102,-143.256C135.093,-134.483 143.091,-124.447 150.301,-115.4"/>
<polygon fill="black" stroke="black" points="153.154,-117.436 156.649,-107.434 147.68,-113.073 153.154,-117.436"/>
</g>
<!-- my&#45;&gt;doinstall -->
<g id="edge12" class="edge"><title>my&#45;&gt;doinstall</title>
<path fill="none" stroke="black" d="M239.964,-333.227C240.367,-296.933 238.199,-209.942 211.5,-143.598 207.542,-133.764 201.424,-124.071 195.152,-115.636"/>
<polygon fill="black" stroke="black" points="197.827,-113.375 188.905,-107.662 192.317,-117.692 197.827,-113.375"/>
</g>
</g>
</svg>
